<svg aria-hidden="true" style="position: absolute; width: 0; height: 0; overflow: hidden;" version="1.1" xmlns="http://www.w3.org/2000/svg" xmlns:xlink="http://www.w3.org/1999/xlink">
<defs>

<symbol id="facebook" viewBox="0 0 32 32">
<path d="M16 0c8.837 0 16 7.163 16 16s-7.163 16-16 16v0c-8.837 0-16-7.163-16-16s7.163-16 16-16v0zM16 2.667c-0.005 0-0.011 0-0.016 0-7.364 0-13.333 5.97-13.333 13.333 0 6.524 4.686 11.954 10.875 13.107l0.082 0.013v-8.773h-3.955v-4.232h3.957v-2.811c0-4.656 2.259-6.701 6.107-6.701 1.848 0 2.821 0.136 3.283 0.2v3.691h-2.627c-1.635 0-2.205 1.557-2.205 3.312v2.312h4.792l-0.651 4.227h-4.144v8.813c6.363-1.089 11.144-6.563 11.144-13.155 0-7.356-5.956-13.321-13.308-13.336h-0.001z"></path>
</symbol>

<symbol id="github" viewBox="0 0 32 32">
<path d="M16 0c8.837 0 16 7.163 16 16s-7.163 16-16 16v0c-8.837 0-16-7.163-16-16s7.163-16 16-16v0zM16 2.613c-7.352 0-13.333 5.981-13.333 13.387 0 0.005 0 0.011 0 0.016 0 5.883 3.795 10.88 9.071 12.676l0.094 0.028c0.032 0.005 0.073 0.010 0.115 0.013l0.005 0c0.541 0.027 0.744-0.344 0.744-0.667l-0.019-2.277c-3.707 0.808-4.491-1.797-4.491-1.797-0.605-1.547-1.48-1.957-1.48-1.957-1.211-0.832 0.091-0.816 0.091-0.816 0.973 0.069 1.611 0.768 1.888 1.147l0.155 0.235c1.189 2.045 3.12 1.456 3.88 1.115 0.123-0.867 0.464-1.456 0.845-1.792-2.96-0.339-6.072-1.488-6.072-6.619 0-1.461 0.52-2.656 1.373-3.595l-0.080-0.227c-0.171-0.541-0.405-1.755 0.211-3.317l0.107-0.019c0.331-0.043 1.461-0.035 3.56 1.392 1-0.284 2.148-0.449 3.335-0.451h0.001c1.133 0.005 2.275 0.155 3.339 0.453 2.547-1.733 3.664-1.376 3.664-1.376 0.725 1.845 0.267 3.205 0.133 3.547 0.853 0.933 1.368 2.131 1.368 3.592 0 5.147-3.117 6.277-6.088 6.608 0.48 0.413 0.907 1.232 0.907 2.48l-0.016 3.675c0 0.347 0.227 0.752 0.861 0.653 5.37-1.824 9.165-6.82 9.165-12.704 0-0.006 0-0.011 0-0.017v0.001c0-7.405-5.981-13.387-13.333-13.387z"></path>
</symbol>

<symbol id="heart" viewBox="0 0 32 32">
<path d="M25 4h-18c-2.76 0-5 2.24-5 5v12c0 2.76 2.24 5 5 5h4c0.31 0 0.61 0.15 0.8 0.4l1.8 2.4c0.56 0.75 1.46 1.2 2.4 1.2s1.84-0.45 2.4-1.2l1.8-2.4c0.19-0.25 0.49-0.4 0.8-0.4h4c2.76 0 5-2.24 5-5v-12c0-2.76-2.24-5-5-5zM20.29 16.37l-3 3.1c-0.33 0.34-0.8 0.53-1.29 0.53s-0.96-0.19-1.29-0.54l-3-3.1c-0.46-0.46-0.71-1.080-0.71-1.72 0-1.32 1.020-2.49 2.4-2.63 1.1-0.11 2.080 0.41 2.6 1.22 0.52-0.81 1.5-1.33 2.6-1.22 1.39 0.14 2.4 1.31 2.4 2.63 0 0.64-0.25 1.26-0.71 1.73z"></path>
</symbol>

<symbol id="icon-likes" viewBox="0 0 32 32">
<path d="M6 13h2l-0.010 16h-1.99c-1.65 0-3-1.35-3-3v-10c0-1.65 1.35-3 3-3z"></path>
<path d="M29 14.69c0 0.28-0.030 0.56-0.090 0.83l-2.22 9.6c-0.53 2.29-2.53 3.88-4.87 3.88h-11.83l0.010-15.84c0-0.72 0.2-1.43 0.57-2.060l3.81-6.35c1-1.66 3.27-2.35 5.11-1.14 0.97 0.64 1.51 1.73 1.51 2.89 0 0.46-0.080 0.9-0.25 1.33l-1.27 3.17h5.83c2.030 0 3.69 1.66 3.69 3.69z"></path>
</symbol>

<symbol id="icon-location" viewBox="0 0 32 32">
<path stroke-linejoin="miter" stroke-linecap="butt" stroke-miterlimit="4" stroke-width="2.6667" d="M20 13.333c0 2.209-1.791 4-4 4s-4-1.791-4-4c0-2.209 1.791-4 4-4s4 1.791 4 4z"></path>
<path stroke-linejoin="round" stroke-linecap="butt" stroke-miterlimit="4" stroke-width="2.6667" d="M16 1.333c-0.089-0.002-0.193-0.004-0.298-0.004-6.354 0-11.526 5.063-11.702 11.374l-0 0.016c0 4.24 1.92 6.453 4.373 9.547s5.333 5.813 7.627 8.373c2.32-2.667 5.333-5.333 7.6-8.373s4.4-5.333 4.4-9.547c-0.453-6.311-5.63-11.274-11.989-11.386l-0.011-0z"></path>
</symbol>

<symbol id="icon-smartphone" viewBox="0 0 32 32">
<path d="M23 0h-14c-1.654 0-3 1.346-3 3v26c0 1.654 1.346 3 3 3h14c1.654 0 3-1.346 3-3v-26c0-1.654-1.346-3-3-3zM9 2h14c0.552 0 1 0.448 1 1v21h-16v-21c0-0.552 0.448-1 1-1zM23 30h-14c-0.552 0-1-0.448-1-1v-3h16v3c0 0.552-0.448 1-1 1z"></path>
<path d="M10.707 27.478c0.391 0.365 0.391 0.956 0 1.321s-1.024 0.365-1.414 0c-0.391-0.365-0.391-0.956 0-1.321s1.024-0.365 1.414 0z"></path>
</symbol>

<symbol id="icon-symbol-defs" viewBox="0 0 32 32">
<path d="M10.707 27.478c0.391 0.365 0.391 0.956 0 1.321s-1.024 0.365-1.414 0c-0.391-0.365-0.391-0.956 0-1.321s1.024-0.365 1.414 0z"></path>
</symbol>

<symbol id="icon-tg" viewBox="0 0 32 32">
<path d="M20.077 32c-0.315 0-0.604-0.182-0.739-0.469l-6.078-12.917-12.651-5.815c-0.3-0.138-0.487-0.443-0.475-0.772s0.222-0.62 0.531-0.736l30.1-11.238c0.297-0.111 0.634-0.040 0.861 0.184s0.302 0.559 0.194 0.859l-10.973 30.365c-0.112 0.311-0.401 0.523-0.731 0.538-0.013 0.001-0.025 0.001-0.039 0.001zM3.077 12.134l11.136 5.119c0.175 0.080 0.316 0.22 0.398 0.395l5.367 11.406 9.703-26.851-26.604 9.932z"></path>
<path d="M13.872 18.812c-0.209 0-0.418-0.080-0.578-0.239-0.319-0.319-0.319-0.837 0-1.156l17.178-17.178c0.319-0.319 0.837-0.319 1.156 0s0.319 0.837 0 1.156l-17.178 17.178c-0.16 0.16-0.369 0.239-0.578 0.239z"></path>
</symbol>

<symbol id="icon-tropical_palm" viewBox="0 0 32 32">
<path d="M17.879 32h-3.015c-0.109-0.197-0.204-0.399-0.3-0.602-0.363-0.758-0.677-1.645-0.895-2.569l-0.018-0.091q-0.147-0.617-0.271-1.238-0.151-0.757-0.262-1.519c-0.036-0.231-0.061-0.464-0.092-0.695l-0.042-0.348-0.033-0.349c-0.020-0.233-0.044-0.464-0.061-0.698l-0.043-0.698c-0.014-0.233-0.016-0.466-0.025-0.698l-0.010-0.349-0.002-0.349c-0.004-0.465 0.011-0.93 0.025-1.394q0.058-1.392 0.244-2.771c0.127-0.918 0.288-1.83 0.506-2.731 0.054-0.225 0.109-0.45 0.171-0.674 0.058-0.224 0.124-0.448 0.19-0.671s0.139-0.445 0.216-0.668c0.039-0.111 0.077-0.222 0.118-0.334 0.019-0.056 0.042-0.113 0.064-0.169l0.071-0.182 1.964 0.596-0.042 0.292c-0.016 0.102-0.030 0.207-0.044 0.311l-0.078 0.633q-0.071 0.635-0.126 1.274-0.029 0.345-0.051 0.691-0.037 0.531-0.058 1.063-0.018 0.402-0.026 0.803v0.009c-0.011 0.354-0.012 0.709-0.012 1.063 0 0.068 0.001 0.136 0.001 0.205l0.008 0.637 0.019 0.636q0.011 0.261 0.023 0.521c0.012 0.25 0.026 0.499 0.046 0.748l0.020 0.314v0.002l0.027 0.316c0.020 0.21 0.033 0.421 0.058 0.631 0.008 0.079 0.016 0.159 0.024 0.239q0.055 0.532 0.131 1.063c0.044 0.313 0.091 0.626 0.141 0.938 0.014 0.089 0.027 0.177 0.042 0.266l0.1 0.547 0.013 0.073c0.017 0.104 0.038 0.207 0.061 0.309l0.064 0.308c0.051 0.271 0.113 0.541 0.177 0.809 0.033 0.139 0.067 0.279 0.099 0.418 0.013 0.048 0.026 0.096 0.038 0.144q0.107 0.405 0.206 0.813c0.121 0.494 0.234 0.991 0.344 1.493 0.022 0.103 0.043 0.207 0.062 0.312s0.038 0.21 0.061 0.314 0.081 0.42 0.114 0.634c0.018 0.124 0.038 0.248 0.057 0.372z"></path>
<path d="M4.25 5.813l-0.438 1.063c3.18-0.103 5.125 1.068 7.342 1.959l-0.78-2.271z"></path>
<path d="M27.875 9.125l0.25 1.188c-2.919-0.848-5.779-0.652-8.629-0.286z"></path>
<path d="M18 7.125c1.57-1.871 3.090-3.285 4.563-3.688l-1.25-1.063z"></path>
<path d="M7.875 16.333l1.084 0.479s1.649-3.325 2.958-4.209l-0.588-0.166z"></path>
<path d="M24 16l-1 1s-3.25-3.625-5.875-4.875l0.813-0.25z"></path>
<path d="M12.563 10.55c0.047-0.243 7.015 1.419 13.75 8.325 0 0 0.7-6.914-10.99-10.5z"></path>
<path d="M15.813 10.818c-0.211-0.924-5.127 0.986-9.11 9.057-0.12-0.456 0.35-10.367 7.472-10.12z"></path>
<path d="M16.030 10.718c0.197-0.912 4.554-9.255 9.61-8.828-0.483-0.547-6.993-6.876-10.282 7.189z"></path>
<path d="M15.91 9.518c0.368-0.781 11.977-8.84 16.090 0.11-0.971-0.68-14.645-0.041-16.301 1.475z"></path>
<path d="M13.772 10.699s-7.341-6.337-13.772-4.218c1.641-4.77 17.327-3.132 15.893 3.468l-0.366 1.787z"></path>
<path d="M15.46 11.961c0 0.739-0.6 1.338-1.339 1.338s-1.339-0.599-1.339-1.338c0-0.739 0.6-1.338 1.339-1.338s1.339 0.599 1.339 1.338z"></path>
<path d="M16.546 13.34c0 0.612-0.497 1.109-1.109 1.109s-1.109-0.496-1.109-1.109c0-0.612 0.497-1.109 1.109-1.109s1.109 0.496 1.109 1.109z"></path>
<path d="M17.235 11.542c0 0.679-0.551 1.23-1.231 1.23s-1.231-0.551-1.231-1.23c0-0.679 0.551-1.23 1.231-1.23s1.231 0.551 1.231 1.23z"></path>
<path d="M17.241 28.875h-1.397c-0.224 0-0.406-0.182-0.406-0.406s0.182-0.406 0.406-0.406v0h1.191q0.107 0.405 0.206 0.813z"></path>
<path d="M16.582 26h-1.551c-0.224 0-0.406-0.182-0.406-0.406s0.182-0.406 0.406-0.406v0h1.409c0.014 0.089 0.027 0.177 0.042 0.266z"></path>
<path d="M16.058 22h-0.589c-0.293 0-0.531-0.238-0.531-0.531s0.238-0.531 0.531-0.531v0h0.524c0.012 0.25 0.026 0.499 0.046 0.748z"></path>
<path d="M16.039 16q-0.037 0.531-0.058 1.063h-1.137c-0.293 0-0.531-0.238-0.531-0.531s0.238-0.531 0.531-0.531v0z"></path>
<path d="M16.299 24.25h-0.143c-0.293 0-0.531-0.238-0.531-0.531s0.238-0.531 0.531-0.531v0h0.012q0.055 0.532 0.131 1.063z"></path>
<path d="M15.954 17.875c-0.011 0.354-0.012 0.709-0.012 1.063h-0.473c-0.293 0-0.531-0.238-0.531-0.531s0.238-0.531 0.531-0.531v0z"></path>
</symbol>

<symbol id="icon-twitter" viewBox="0 0 32 32">
<path d="M21.125 2.667c0.004 0 0.009 0 0.015 0 1.732 0 3.338 0.538 4.66 1.455l-0.027-0.018c0.57-0.2 1.059-0.429 1.519-0.701l-0.039 0.021 0.256-0.133c2.059-0.939 4.491 2.043 4.491 4.709s-2.667 2.667-2.723 3.925c-0.299 9.315-7.76 17.408-18.221 17.408-0.009 0-0.020 0-0.031 0-3.63 0-7.012-1.056-9.858-2.879l0.073 0.044c-2.4-1.52-1.077-5.235 1.741-4.899l0.485 0.040 0.507 0.016c0.176 0 0.347-0.005 0.52-0.016-0.597-0.744-1.067-1.6-1.376-2.533-0.085-0.249-0.134-0.536-0.134-0.834 0-0.061 0.002-0.122 0.006-0.182l-0 0.008c-1.195-1.387-1.922-3.206-1.923-5.195v-0l0.019-0.384c0.049-0.417 0.188-0.793 0.398-1.12l-0.006 0.010c-0.232-0.714-0.366-1.536-0.366-2.389 0-1.499 0.414-2.901 1.133-4.098l-0.020 0.036c0.473-0.789 1.323-1.31 2.296-1.31 0.824 0 1.561 0.374 2.050 0.961l0.003 0.004c1.687 2.025 3.952 3.516 6.541 4.222l0.091 0.021c0.898-3.582 4.089-6.192 7.89-6.192 0.011 0 0.021 0 0.032 0h-0.002zM21.128 5.333c-3.021 0-5.472 2.411-5.472 5.387 0 0.421 0.051 0.832 0.144 1.227-4.543-0.222-8.547-2.353-11.257-5.602l-0.020-0.025c-0.464 0.772-0.739 1.704-0.739 2.699 0 0.003 0 0.005 0 0.008v-0c0 1.867 0.963 3.517 2.432 4.485-0.914-0.029-1.764-0.276-2.508-0.689l0.028 0.014 0.019 0.496c0.218 2.429 2.008 4.383 4.336 4.848l0.035 0.006c-0.808 0.213-1.653 0.245-2.472 0.091 0.739 2.166 2.74 3.704 5.105 3.741l0.004 0c-1.851 1.44-4.209 2.309-6.769 2.309-0.468 0-0.928-0.029-1.381-0.085l0.054 0.005c2.366 1.517 5.253 2.419 8.351 2.419 0.012 0 0.025 0 0.037-0h-0.002c10.061 0 15.565-8.205 15.565-15.323l-0.013-0.699c1.073-0.77 1.978-1.693 2.704-2.749l0.024-0.037c-1 0.435-2.059 0.72-3.147 0.848 1.147-0.672 2-1.733 2.408-2.979-1.001 0.594-2.165 1.048-3.404 1.295l-0.071 0.012c-1.003-1.049-2.414-1.701-3.977-1.701-0.005 0-0.011 0-0.016 0h0.001z"></path>
</symbol>

<symbol id="icon-watermelon" viewBox="0 0 32 32">
<path d="M31.028 22.84l-0.729-1.159-13.275-21.114c-0.217-0.344-0.594-0.568-1.024-0.568s-0.807 0.225-1.021 0.563l-0.003 0.005-14.761 23.476c-0.135 0.212-0.216 0.47-0.216 0.748 0 0.39 0.159 0.744 0.416 0.998l0 0c3.893 3.822 9.435 6.21 15.584 6.21s11.691-2.389 15.584-6.211c0.257-0.255 0.417-0.608 0.417-0.998 0-0.277-0.080-0.536-0.219-0.753l0.003 0.006z"></path>
<path d="M30.299 21.682l-13.275-21.114c-0.217-0.344-0.594-0.568-1.024-0.568s-0.807 0.225-1.021 0.563l-0.003 0.005-14.004 22.272c0.542 0.652 1.101 1.239 1.697 1.787l0.013 0.012c3.558 3.266 8.287 5.065 13.319 5.065s9.761-1.799 13.319-5.065c0.608-0.56 1.167-1.147 1.686-1.769l0.024-0.029z"></path>
<path d="M30.299 21.682c-0.598 0.769-1.229 1.453-1.911 2.080l-0.012 0.011c-3.305 3.036-7.7 4.707-12.376 4.707s-9.070-1.671-12.376-4.707c-0.695-0.638-1.325-1.321-1.896-2.053l-0.028-0.037 13.275-21.114c0.217-0.344 0.594-0.568 1.024-0.568s0.807 0.225 1.021 0.563l0.003 0.005z"></path>
<path d="M9.414 17.794c0 0.459-0.372 0.831-0.831 0.831s-0.831-0.372-0.831-0.831v0c0-0.464 0.831-1.679 0.831-1.679s0.831 1.215 0.831 1.679z"></path>
<path d="M10.949 24.316c0 0.459-0.372 0.831-0.831 0.831s-0.831-0.372-0.831-0.831v0c0-0.464 0.831-1.679 0.831-1.679s0.831 1.215 0.831 1.679z"></path>
<path d="M24.249 17.794c0 0.459-0.372 0.831-0.831 0.831s-0.831-0.372-0.831-0.831v0c0-0.464 0.831-1.679 0.831-1.679s0.831 1.215 0.831 1.679z"></path>
<path d="M22.458 24.316c0 0.459-0.372 0.831-0.831 0.831s-0.831-0.372-0.831-0.831v0c0-0.464 0.831-1.679 0.831-1.679s0.831 1.215 0.831 1.679z"></path>
<path d="M16.831 6.817c0 0.459-0.372 0.831-0.831 0.831s-0.831-0.372-0.831-0.831v0c0-0.464 0.831-1.679 0.831-1.679s0.831 1.215 0.831 1.679z"></path>
<path d="M12.611 11.919c0 0.459-0.372 0.831-0.831 0.831s-0.831-0.372-0.831-0.831v0c0-0.464 0.831-1.679 0.831-1.679s0.831 1.215 0.831 1.679z"></path>
<path d="M21.051 11.919c0 0.459-0.372 0.831-0.831 0.831s-0.831-0.372-0.831-0.831v0c0-0.464 0.831-1.679 0.831-1.679s0.831 1.215 0.831 1.679z"></path>
<path d="M16.831 17.794c0 0.459-0.372 0.831-0.831 0.831s-0.831-0.372-0.831-0.831v0c0-0.464 0.831-1.679 0.831-1.679s0.831 1.215 0.831 1.679z"></path>
</symbol>

</defs>
</svg>
